# xmcd
#
# Track frame offsets:
#	150
#	22777
#	52528
#	73340
#	100434
#	111314
#	135286
#	168688
#	192395
#	213632
#
# Disc length: 3155 seconds
#
# Revision: 1
# Processed by: cddbd v1.5.2PL0 Copyright (c) Steve Scherf et al.
# Submitted via: audiograbber 1.83.01
#
DISCID=8c0c510a
DTITLE=Jukka Eskola Soul Trio - Jukka Eskola Soul Trio
DYEAR=2017
DGENRE=Jazz
TTITLE0=Martha's New Moment
TTITLE1=Hong Thong
TTITLE2=Sweet Honey Bee
TTITLE3=Railyard Boogie
TTITLE4=Introducing The Soul Trio
TTITLE5=Subterranean Variations
TTITLE6=For Anna Lee
TTITLE7=Soft Drop
TTITLE8=More
TTITLE9=Jumpin' Punkins
EXTD=YEAR: 2017
EXTT0=
EXTT1=
EXTT2=
EXTT3=
EXTT4=
EXTT5=
EXTT6=
EXTT7=
EXTT8=
EXTT9=
PLAYORDER=
